Coordinates
nRows=299
nColumns=2
inDegrees=yes
endheader
time	ankle_angle_r	
2.0291	  0.122070	
2.06237	 -0.015259	
2.09563	  0.061035	
2.1289	  0.167847	
2.16216	  0.030518	
2.19542	  0.045776	
2.22869	  0.061035	
2.26195	  0.030518	
2.29522	  0.045776	
2.32848	  0.015259	
2.36174	 -0.045776	
2.39501	  0.091553	
2.42827	  0.061035	
2.46154	 -0.030518	
2.4948	  0.137329	
2.52806	  0.167847	
2.56133	  0.106812	
2.59459	  0.106812	
2.62786	  0.167847	
2.66112	  0.061035	
2.69438	  0.106812	
2.72765	  0.122070	
2.76091	  0.030518	
2.79418	  0.076294	
2.82744	  0.076294	
2.8607	  0.045776	
2.89397	  0.076294	
2.92723	  0.015259	
2.9605	 -0.076294	
2.99376	  0.076294	
3.02702	  0.167847	
3.06029	 -0.061035	
3.09355	  0.106812	
3.12682	  0.122070	
3.16008	  0.015259	
3.19334	  0.045776	
3.22661	  0.106812	
3.25987	 -0.061035	
3.29314	  0.106812	
3.3264	  0.137329	
3.35966	  0.000000	
3.39293	  0.061035	
3.42619	  0.122070	
3.45946	  0.061035	
3.49272	  0.137329	
3.52598	  0.045776	
3.55925	  0.015259	
3.59251	  0.106812	
3.62578	  0.122070	
3.65904	  0.015259	
3.6923	  0.091553	
3.72557	  0.076294	
3.75883	 -0.015259	
3.7921	  0.076294	
3.82536	  0.106812	
3.85862	 -0.030518	
3.89189	  0.106812	
3.92515	  0.076294	
3.95842	  0.015259	
3.99168	  0.045776	
4.02494	  0.091553	
4.05821	 -0.045776	
4.09147	  0.061035	
4.12474	  0.061035	
4.158	  0.106812	
4.19126	  0.106812	
4.22453	  0.167847	
4.25779	  0.000000	
4.29106	  0.122070	
4.32432	  0.091553	
4.35758	 -0.045776	
4.39085	  0.015259	
4.42411	  0.122070	
4.45738	 -0.015259	
4.49064	  0.045776	
4.5239	  0.106812	
4.55717	  0.015259	
4.59043	  0.122070	
4.6237	  0.091553	
4.65696	 -0.061035	
4.69022	  0.045776	
4.72349	  0.106812	
4.75675	 -0.015259	
4.79002	  0.030518	
4.82328	  0.030518	
4.85654	  0.030518	
4.88981	  0.061035	
4.92307	  0.122070	
4.95634	  0.076294	
4.9896	  0.122070	
5.02286	  0.091553	
5.05613	  0.030518	
5.08939	  0.076294	
5.12266	  0.183105	
5.15592	 -0.030518	
5.18918	  0.045776	
5.22245	  0.091553	
5.25571	  0.045776	
5.28898	  0.076294	
5.32224	  0.061035	
5.3555	  0.015259	
5.38877	  0.122070	
5.42203	  0.122070	
5.4553	  0.045776	
5.48856	  0.076294	
5.52182	  0.122070	
5.55509	 -0.091553	
5.58835	  0.076294	
5.62162	  0.122070	
5.65488	  0.000000	
5.68814	  0.015259	
5.72141	  0.152588	
5.75467	  0.061035	
5.78794	  0.106812	
5.8212	  0.122070	
5.85446	  0.000000	
5.88773	  0.045776	
5.92099	  0.015259	
5.95426	 -0.061035	
5.98752	  0.030518	
6.02078	  0.137329	
6.05405	  0.030518	
6.08731	  0.076294	
6.12058	  0.076294	
6.15384	  0.000000	
6.1871	  0.030518	
6.22037	  0.076294	
6.25363	  0.015259	
6.2869	  0.045776	
6.32016	  0.091553	
6.35342	  0.061035	
6.38669	  0.076294	
6.41995	  0.106812	
6.45322	  0.030518	
6.48648	  0.122070	
6.51974	  0.091553	
6.55301	  0.061035	
6.58627	  0.137329	
6.61954	  0.183105	
6.6528	  0.061035	
6.68606	  0.137329	
6.71933	  0.061035	
6.75259	  0.045776	
6.78586	  0.106812	
6.81912	  0.045776	
6.85238	  0.045776	
6.88565	  0.091553	
6.91891	  0.137329	
6.95218	 -0.015259	
6.98544	  0.061035	
7.0187	  0.122070	
7.05197	 -0.015259	
7.08523	  0.045776	
7.1185	  0.076294	
7.15176	  0.000000	
7.18502	  0.152588	
7.21829	  0.076294	
7.25155	  0.076294	
7.28482	  0.030518	
7.31808	  0.091553	
7.35134	  0.030518	
7.38461	  0.167847	
7.41787	  0.152588	
7.45114	  0.015259	
7.4844	  0.106812	
7.51766	  0.091553	
7.55093	  0.000000	
7.58419	  0.045776	
7.61746	  0.106812	
7.65072	  0.000000	
7.68398	  0.015259	
7.71725	  0.061035	
7.75051	  0.000000	
7.78378	  0.076294	
7.81704	  0.061035	
7.8503	 -0.015259	
7.88357	  0.045776	
7.91683	  0.076294	
7.9501	  0.076294	
7.98336	  0.091553	
8.01662	  0.015259	
8.04989	 -0.030518	
8.08315	  0.167847	
8.11642	  0.198364	
8.14968	  0.091553	
8.18294	  0.122070	
8.21621	  0.152588	
8.24947	  0.091553	
8.28274	  0.122070	
8.316	  0.061035	
8.34926	  0.000000	
8.38253	  0.106812	
8.41579	  0.152588	
8.44906	  0.076294	
8.48232	  0.137329	
8.51558	  0.122070	
8.54885	  0.015259	
8.58211	  0.122070	
8.61538	  0.106812	
8.64864	  0.000000	
8.6819	  0.045776	
8.71517	  0.091553	
8.74843	  0.000000	
8.7817	  0.015259	
8.81496	  0.106812	
8.84822	 -0.045776	
8.88149	  0.076294	
8.91475	  0.045776	
8.94802	  0.015259	
8.98128	  0.106812	
9.01454	  0.152588	
9.04781	  0.030518	
9.08107	  0.076294	
9.11434	  0.061035	
9.1476	 -0.015259	
9.18086	  0.030518	
9.21413	  0.183105	
9.24739	  0.076294	
9.28066	  0.061035	
9.31392	  0.091553	
9.34718	  0.045776	
9.38045	  0.076294	
9.41371	  0.122070	
9.44698	  0.045776	
9.48024	  0.091553	
9.5135	  0.076294	
9.54677	  0.076294	
9.58003	 -0.015259	
9.6133	  0.167847	
9.64656	  0.030518	
9.67982	 -0.015259	
9.71309	  0.228882	
9.74635	  0.091553	
9.77962	  0.167847	
9.81288	  0.167847	
9.84614	  0.091553	
9.87941	  0.122070	
9.91267	  0.152588	
9.94594	  0.076294	
9.9792	  0.137329	
10.0125	  0.076294	
10.0457	  0.045776	
10.079	  0.106812	
10.1123	  0.000000	
10.1455	  0.000000	
10.1788	  0.015259	
10.212	  0.061035	
10.2453	 -0.045776	
10.2786	  0.106812	
10.3118	  0.061035	
10.3451	 -0.061035	
10.3784	  0.106812	
10.4116	  0.061035	
10.4449	  0.015259	
10.4782	  0.137329	
10.5114	  0.152588	
10.5447	  0.045776	
10.578	  0.076294	
10.6112	  0.137329	
10.6445	  0.015259	
10.6777	  0.122070	
10.711	  0.030518	
10.7443	  0.030518	
10.7775	  0.045776	
10.8108	  0.152588	
10.8441	  0.061035	
10.8773	  0.137329	
10.9106	  0.122070	
10.9439	  0.000000	
10.9771	  0.045776	
11.0104	  0.091553	
11.0436	  0.000000	
11.0769	  0.152588	
11.1102	  0.122070	
11.1434	  0.091553	
11.1767	  0.061035	
11.21	  0.015259	
11.2432	  0.000000	
11.2765	  0.061035	
11.3098	  0.137329	
11.343	  0.030518	
11.3763	  0.122070	
11.4096	  0.030518	
11.4428	 -0.030518	
11.4761	  0.061035	
11.5093	  0.076294	
11.5426	 -0.045776	
11.5759	 -0.015259	
11.6091	  0.061035	
11.6424	 -0.015259	
11.6757	  0.045776	
11.7089	  0.045776	
11.7422	 -0.030518	
11.7755	  0.045776	
11.8087	  0.106812	
11.842	  0.015259	
11.8752	  0.122070	
11.9085	  0.045776	
11.9418	  0.015259	
